<svg width="22" height="21" viewBox="0 0 22 21" fill="none" xmlns="http://www.w3.org/2000/svg">
<path d="M7.88672 20.3334C8.71515 20.3334 9.38672 19.6618 9.38672 18.8334C9.38672 18.0049 8.71515 17.3334 7.88672 17.3334C7.05829 17.3334 6.38672 18.0049 6.38672 18.8334C6.38672 19.6618 7.05829 20.3334 7.88672 20.3334Z" fill="#359740"/>
<path d="M17 20.3334C17.8284 20.3334 18.5 19.6618 18.5 18.8334C18.5 18.0049 17.8284 17.3334 17 17.3334C16.1716 17.3334 15.5 18.0049 15.5 18.8334C15.5 19.6618 16.1716 20.3334 17 20.3334Z" fill="#359740"/>
<path d="M21.0533 2.58003C20.9913 2.50356 20.913 2.44177 20.8243 2.39912C20.7355 2.35647 20.6384 2.33402 20.54 2.33337H6.65995L7.09329 3.6667H19.6666L17.8866 11.6667H7.88662L4.83995 2.02003C4.807 1.91767 4.74977 1.8248 4.67315 1.74935C4.59654 1.67389 4.5028 1.61809 4.39995 1.5867L1.66662 0.746699C1.58257 0.720872 1.49426 0.711852 1.40673 0.720155C1.3192 0.728457 1.23416 0.753919 1.15647 0.795086C0.999562 0.878227 0.882111 1.02029 0.829952 1.19003C0.777792 1.35977 0.795198 1.54328 0.878339 1.70018C0.96148 1.85709 1.10355 1.97454 1.27329 2.0267L3.66662 2.76003L6.72662 12.4267L5.63329 13.32L5.54662 13.4067C5.27618 13.7184 5.12289 14.1146 5.11315 14.5271C5.10342 14.9396 5.23784 15.3426 5.49329 15.6667C5.67499 15.8877 5.90589 16.0631 6.16751 16.1788C6.42913 16.2946 6.71421 16.3475 6.99995 16.3334H18.1266C18.3034 16.3334 18.473 16.2631 18.598 16.1381C18.723 16.0131 18.7933 15.8435 18.7933 15.6667C18.7933 15.4899 18.723 15.3203 18.598 15.1953C18.473 15.0703 18.3034 15 18.1266 15H6.89329C6.81652 14.9974 6.74172 14.975 6.67612 14.9351C6.61053 14.8951 6.55635 14.8389 6.51882 14.7719C6.48128 14.7048 6.46167 14.6293 6.46187 14.5525C6.46207 14.4757 6.48207 14.4002 6.51995 14.3334L8.12662 13H18.42C18.5741 13.0038 18.7247 12.954 18.8463 12.8592C18.9678 12.7644 19.0527 12.6304 19.0866 12.48L21.2 3.1467C21.2202 3.04731 21.2176 2.94461 21.1921 2.84641C21.1667 2.74821 21.1192 2.6571 21.0533 2.58003Z" fill="#359740"/>
</svg>
